OHamburgC-ItalicExtended.ufo
<glyph name="quotesingle" format="2">
  <advance width="304"/>
  <unicode hex="0027"/>
  <outline>
    <contour>
      <point x="142" y="379" type="line"/>
      <point x="207" y="401"/>
      <point x="265" y="450"/>
      <point x="293" y="497" type="curve" smooth="yes"/>
      <point x="333" y="566"/>
      <point x="339" y="628"/>
      <point x="296" y="646" type="curve" smooth="yes"/>
      <point x="269" y="656"/>
      <point x="247" y="645"/>
      <point x="233" y="619" type="curve" smooth="yes"/>
      <point x="217" y="593"/>
      <point x="214" y="568"/>
      <point x="239" y="559" type="curve" smooth="yes"/>
      <point x="267" y="548"/>
      <point x="270" y="511"/>
      <point x="246" y="471" type="curve" smooth="yes"/>
      <point x="234" y="451"/>
      <point x="187" y="422"/>
      <point x="134" y="403" type="curve"/>
    </contour>
  </outline>
</glyph>
<glyph name="comma" format="2">
  <advance width="305"/>
  <unicode hex="002C"/>
  <outline>
    <contour>
      <point x="12" y="-107" type="line"/>
      <point x="77" y="-85"/>
      <point x="135" y="-36"/>
      <point x="163" y="11" type="curve" smooth="yes"/>
      <point x="203" y="80"/>
      <point x="209" y="142"/>
      <point x="166" y="160" type="curve" smooth="yes"/>
      <point x="139" y="170"/>
      <point x="117" y="159"/>
      <point x="103" y="133" type="curve" smooth="yes"/>
      <point x="87" y="107"/>
      <point x="84" y="82"/>
      <point x="109" y="73" type="curve" smooth="yes"/>
      <point x="137" y="62"/>
      <point x="140" y="25"/>
      <point x="116" y="-15" type="curve" smooth="yes"/>
      <point x="104" y="-35"/>
      <point x="57" y="-64"/>
      <point x="4" y="-83" type="curve"/>
    </contour>
  </outline>
</glyph>
<glyph name="period" format="2">
  <advance width="261"/>
  <unicode hex="002E"/>
  <outline>
    <contour>
      <point x="74" y="16" type="curve"/>
      <point x="104" y="9"/>
      <point x="129" y="24"/>
      <point x="140" y="49" type="curve" smooth="yes"/>
      <point x="150" y="73"/>
      <point x="142" y="98"/>
      <point x="112" y="105" type="curve" smooth="yes"/>
      <point x="82" y="112"/>
      <point x="57" y="97"/>
      <point x="46" y="73" type="curve" smooth="yes"/>
      <point x="35" y="48"/>
      <point x="42" y="23"/>
    </contour>
  </outline>
</glyph>
<glyph name="one" format="2">
  <advance width="527"/>
  <unicode hex="0031"/>
  <outline>
    <contour>
      <point x="103" y="0" type="line"/>
      <point x="343" y="0" type="line"/>
      <point x="345" y="17" type="line"/>
      <point x="314" y="24"/>
      <point x="280" y="39"/>
      <point x="274" y="44" type="curve" smooth="yes"/>
      <point x="260" y="58"/>
      <point x="261" y="78"/>
      <point x="266" y="98" type="curve" smooth="yes"/>
      <point x="275" y="132"/>
      <point x="300" y="204"/>
      <point x="320" y="279" type="curve" smooth="yes"/>
      <point x="334" y="331"/>
      <point x="367" y="402"/>
      <point x="384" y="443" type="curve"/>
      <point x="199" y="396" type="line"/>
      <point x="193" y="371" type="line"/>
      <point x="249" y="371"/>
      <point x="286" y="347"/>
      <point x="278" y="316" type="curve" smooth="yes"/>
      <point x="266" y="271"/>
      <point x="237" y="171"/>
      <point x="209" y="79" type="curve" smooth="yes"/>
      <point x="204" y="64"/>
      <point x="190" y="48"/>
      <point x="176" y="39" type="curve" smooth="yes"/>
      <point x="167" y="33"/>
      <point x="139" y="26"/>
      <point x="107" y="20" type="curve"/>
    </contour>
  </outline>
</glyph>
<glyph name="two" format="2">
  <advance width="491"/>
  <unicode hex="0032"/>
  <outline>
    <contour>
      <point x="-23" y="-5" type="line"/>
      <point x="338" y="-5" type="line"/>
      <point x="412" y="74" type="line"/>
      <point x="304" y="56"/>
      <point x="159" y="43"/>
      <point x="62" y="51" type="curve"/>
      <point x="57" y="36" type="line"/>
      <point x="242" y="159"/>
      <point x="376" y="279"/>
      <point x="394" y="326" type="curve" smooth="yes"/>
      <point x="421" y="395"/>
      <point x="374" y="446"/>
      <point x="302" y="446" type="curve" smooth="yes"/>
      <point x="239" y="446"/>
      <point x="162" y="408"/>
      <point x="115" y="355" type="curve"/>
      <point x="137" y="335" type="line"/>
      <point x="176" y="370"/>
      <point x="226" y="394"/>
      <point x="259" y="394" type="curve" smooth="yes"/>
      <point x="306" y="394"/>
      <point x="326" y="363"/>
      <point x="320" y="320" type="curve" smooth="yes"/>
      <point x="313" y="273"/>
      <point x="274" y="224"/>
      <point x="135" y="126" type="curve" smooth="yes"/>
      <point x="-25" y="13" type="line"/>
    </contour>
  </outline>
</glyph>
<glyph name="three" format="2">
  <advance width="396"/>
  <unicode hex="0033"/>
  <outline>
    <contour>
      <point x="-65" y="-228" type="line"/>
      <point x="149" y="-166"/>
      <point x="297" y="-45"/>
      <point x="294" y="64" type="curve" smooth="yes"/>
      <point x="292" y="130"/>
      <point x="264" y="180"/>
      <point x="227" y="185" type="curve" smooth="yes"/>
      <point x="197" y="189"/>
      <point x="177" y="184"/>
      <point x="165" y="180" type="curve"/>
      <point x="81" y="156" type="line"/>
      <point x="89" y="126" type="line"/>
      <point x="122" y="140"/>
      <point x="154" y="150"/>
      <point x="165" y="150" type="curve" smooth="yes"/>
      <point x="204" y="150"/>
      <point x="230" y="106"/>
      <point x="228" y="43" type="curve" smooth="yes"/>
      <point x="225" y="-41"/>
      <point x="104" y="-144"/>
      <point x="-64" y="-205" type="curve"/>
    </contour>
    <contour>
      <point x="89" y="126" type="line"/>
      <point x="103" y="133"/>
      <point x="129" y="160"/>
      <point x="153" y="171" type="curve" smooth="yes"/>
      <point x="273" y="224"/>
      <point x="349" y="300"/>
      <point x="352" y="354" type="curve" smooth="yes"/>
      <point x="355" y="408"/>
      <point x="319" y="446"/>
      <point x="279" y="446" type="curve" smooth="yes"/>
      <point x="229" y="446"/>
      <point x="158" y="411"/>
      <point x="108" y="361" type="curve"/>
      <point x="118" y="339" type="line"/>
      <point x="154" y="371"/>
      <point x="205" y="394"/>
      <point x="231" y="394" type="curve" smooth="yes"/>
      <point x="259" y="394"/>
      <point x="277" y="371"/>
      <point x="277" y="334" type="curve" smooth="yes"/>
      <point x="277" y="271"/>
      <point x="198" y="219"/>
      <point x="81" y="156" type="curve"/>
    </contour>
  </outline>
</glyph>
<glyph name="seven" format="2">
  <advance width="525"/>
  <unicode hex="0037"/>
  <outline>
    <contour>
      <point x="-18" y="-218" type="line"/>
      <point x="22" y="-249" type="line"/>
      <point x="564" y="439" type="line"/>
      <point x="143" y="439" type="line"/>
      <point x="77" y="359" type="line"/>
      <point x="213" y="376"/>
      <point x="348" y="386"/>
      <point x="481" y="379" type="curve"/>
      <point x="495" y="405" type="line"/>
    </contour>
  </outline>
</glyph>
<glyph name="nine" format="2">
  <advance width="538"/>
  <unicode hex="0039"/>
  <outline>
    <contour>
      <point x="347" y="446" type="curve" smooth="yes"/>
      <point x="234" y="446"/>
      <point x="121" y="371"/>
      <point x="103" y="257" type="curve" smooth="yes"/>
      <point x="88" y="162"/>
      <point x="132" y="94"/>
      <point x="234" y="94" type="curve" smooth="yes"/>
      <point x="270" y="94"/>
      <point x="315" y="108"/>
      <point x="342" y="128" type="curve"/>
      <point x="331" y="149" type="line"/>
      <point x="308" y="135"/>
      <point x="281" y="125"/>
      <point x="266" y="125" type="curve" smooth="yes"/>
      <point x="190" y="125"/>
      <point x="161" y="185"/>
      <point x="173" y="269" type="curve" smooth="yes"/>
      <point x="185" y="353"/>
      <point x="253" y="409"/>
      <point x="327" y="409" type="curve" smooth="yes"/>
      <point x="406" y="409"/>
      <point x="434" y="317"/>
      <point x="410" y="188" type="curve" smooth="yes"/>
      <point x="380" y="24"/>
      <point x="177" y="-145"/>
      <point x="-56" y="-213" type="curve"/>
      <point x="-50" y="-243" type="line"/>
      <point x="212" y="-166"/>
      <point x="450" y="21"/>
      <point x="486" y="217" type="curve" smooth="yes"/>
      <point x="511" y="351"/>
      <point x="463" y="446"/>
    </contour>
  </outline>
</glyph>
<glyph name="A" format="2">
  <advance width="706"/>
  <unicode hex="0041"/>
  <anchor x="305" y="0" name="bottom"/>
  <anchor x="582" y="10" name="ogonek"/>
  <anchor x="515" y="616" name="top"/>
  <outline>
    <contour>
      <point x="380" y="0" type="line"/>
      <point x="632" y="0" type="line"/>
      <point x="638" y="22" type="line"/>
      <point x="573" y="36"/>
      <point x="559" y="61"/>
      <point x="548" y="132" type="curve" smooth="yes"/>
      <point x="526" y="303"/>
      <point x="504" y="477"/>
      <point x="482" y="648" type="curve"/>
      <point x="422" y="576" type="line"/>
      <point x="423" y="550" type="line"/>
      <point x="473" y="136" type="line" smooth="yes"/>
      <point x="485" y="39"/>
      <point x="467" y="40"/>
      <point x="386" y="22" type="curve"/>
    </contour>
    <contour>
      <point x="-34" y="0" type="line"/>
      <point x="218" y="0" type="line"/>
      <point x="224" y="22" type="line"/>
      <point x="152" y="28"/>
      <point x="132" y="54"/>
      <point x="178" y="127" type="curve" smooth="yes"/>
      <point x="452" y="564" type="line"/>
      <point x="422" y="576" type="line"/>
      <point x="311" y="404"/>
      <point x="189" y="195"/>
      <point x="96" y="80" type="curve" smooth="yes"/>
      <point x="68" y="46"/>
      <point x="17" y="22"/>
      <point x="-28" y="22" type="curve"/>
    </contour>
    <contour>
      <point x="232" y="258" type="line"/>
      <point x="486" y="258" type="line"/>
      <point x="482" y="298" type="line"/>
      <point x="259" y="298" type="line"/>
    </contour>
  </outline>
</glyph>
<glyph name="P" format="2">
  <advance width="512"/>
  <unicode hex="0050"/>
  <anchor x="194" y="0" name="bottom"/>
  <anchor x="404" y="616" name="top"/>
  <outline>
    <contour>
      <point x="256" y="272" type="line"/>
      <point x="260" y="271"/>
      <point x="272" y="271"/>
      <point x="287" y="271" type="curve" smooth="yes"/>
      <point x="417" y="271"/>
      <point x="523" y="353"/>
      <point x="543" y="468" type="curve" smooth="yes"/>
      <point x="558" y="558"/>
      <point x="502" y="620"/>
      <point x="408" y="618" type="curve"/>
      <point x="380" y="587" type="line"/>
      <point x="432" y="587"/>
      <point x="467" y="533"/>
      <point x="464" y="456" type="curve" smooth="yes"/>
      <point x="461" y="364"/>
      <point x="378" y="299"/>
      <point x="263" y="299" type="curve"/>
    </contour>
    <contour>
      <point x="-18" y="0" type="line"/>
      <point x="252" y="0" type="line"/>
      <point x="258" y="21" type="line"/>
      <point x="210" y="32"/>
      <point x="174" y="43"/>
      <point x="171" y="47" type="curve" smooth="yes"/>
      <point x="165" y="54"/>
      <point x="166" y="79"/>
      <point x="174" y="111" type="curve" smooth="yes"/>
      <point x="198" y="205"/>
      <point x="249" y="405"/>
      <point x="301" y="586" type="curve"/>
      <point x="380" y="587" type="line"/>
      <point x="408" y="618" type="line"/>
      <point x="344" y="617"/>
      <point x="288" y="616"/>
      <point x="275" y="616" type="curve"/>
      <point x="239" y="616"/>
      <point x="178" y="617"/>
      <point x="129" y="618" type="curve"/>
      <point x="121" y="590" type="line"/>
      <point x="163" y="583"/>
      <point x="198" y="570"/>
      <point x="204" y="559" type="curve" smooth="yes"/>
      <point x="211" y="549"/>
      <point x="212" y="529"/>
      <point x="207" y="510" type="curve" smooth="yes"/>
      <point x="180" y="403"/>
      <point x="134" y="231"/>
      <point x="98" y="101" type="curve" smooth="yes"/>
      <point x="91" y="76"/>
      <point x="80" y="54"/>
      <point x="70" y="45" type="curve" smooth="yes"/>
      <point x="64" y="40"/>
      <point x="30" y="30"/>
      <point x="-12" y="21" type="curve"/>
    </contour>
  </outline>
</glyph>
<glyph name="W" format="2">
  <advance width="916"/>
  <unicode hex="0057"/>
  <anchor x="350" y="0" name="bottom"/>
  <anchor x="560" y="616" name="top"/>
  <outline>
    <contour>
      <point x="538" y="438" type="curve"/>
      <point x="528" y="487" type="line"/>
      <point x="249" y="75" type="line"/>
      <point x="275" y="98" type="line"/>
      <point x="231" y="496" type="line" smooth="yes"/>
      <point x="224" y="562"/>
      <point x="221" y="582"/>
      <point x="308" y="591" type="curve"/>
      <point x="315" y="616" type="line"/>
      <point x="71" y="616" type="line"/>
      <point x="64" y="588" type="line"/>
      <point x="101" y="579"/>
      <point x="147" y="572"/>
      <point x="157" y="489" type="curve" smooth="yes"/>
      <point x="218" y="-24" type="line"/>
      <point x="231" y="-24" type="line"/>
      <point x="309" y="108"/>
      <point x="465" y="321"/>
    </contour>
    <contour>
      <point x="536" y="-24" type="line"/>
      <point x="549" y="-24" type="line"/>
      <point x="663" y="153"/>
      <point x="861" y="444"/>
      <point x="900" y="505" type="curve" smooth="yes"/>
      <point x="939" y="566"/>
      <point x="941" y="576"/>
      <point x="1010" y="588" type="curve"/>
      <point x="1017" y="616" type="line"/>
      <point x="819" y="616" type="line"/>
      <point x="812" y="591" type="line"/>
      <point x="891" y="570"/>
      <point x="877" y="533"/>
      <point x="822" y="452" type="curve" smooth="yes"/>
      <point x="567" y="70" type="line"/>
      <point x="598" y="99" type="line"/>
      <point x="585" y="233"/>
      <point x="567" y="480"/>
      <point x="566" y="496" type="curve" smooth="yes"/>
      <point x="562" y="572"/>
      <point x="578" y="582"/>
      <point x="648" y="591" type="curve"/>
      <point x="655" y="616" type="line"/>
      <point x="421" y="616" type="line"/>
      <point x="414" y="591" type="line"/>
      <point x="458" y="584"/>
      <point x="487" y="572"/>
      <point x="494" y="489" type="curve" smooth="yes"/>
    </contour>
  </outline>
</glyph>
<glyph name="bracketleft" format="2">
  <advance width="326"/>
  <unicode hex="005B"/>
  <outline>
    <contour>
      <point x="304" y="656" type="line"/>
      <point x="423" y="656" type="line"/>
      <point x="433" y="692" type="line"/>
      <point x="242" y="692" type="line"/>
      <point x="180" y="416"/>
      <point x="102" y="140"/>
      <point x="10" y="-136" type="curve"/>
      <point x="201" y="-136" type="line"/>
      <point x="211" y="-100" type="line"/>
      <point x="92" y="-100" type="line"/>
    </contour>
  </outline>
</glyph>
<glyph name="a" format="2">
  <advance width="429"/>
  <unicode hex="0061"/>
  <anchor x="143" y="0" name="bottom"/>
  <anchor x="325" y="10" name="ogonek"/>
  <anchor x="284" y="401" name="top"/>
  <outline>
    <contour>
      <point x="65" y="-10" type="curve" smooth="yes"/>
      <point x="130" y="-10"/>
      <point x="236" y="53"/>
      <point x="314" y="208" type="curve"/>
      <point x="306" y="249" type="line"/>
      <point x="248" y="132"/>
      <point x="147" y="46"/>
      <point x="106" y="46" type="curve" smooth="yes"/>
      <point x="78" y="46"/>
      <point x="75" y="97"/>
      <point x="90" y="156" type="curve" smooth="yes"/>
      <point x="124" y="284"/>
      <point x="191" y="366"/>
      <point x="255" y="366" type="curve" smooth="yes"/>
      <point x="276" y="366"/>
      <point x="325" y="355"/>
      <point x="335" y="333" type="curve"/>
      <point x="362" y="388" type="line"/>
      <point x="346" y="396"/>
      <point x="293" y="402"/>
      <point x="278" y="402" type="curve" smooth="yes"/>
      <point x="169" y="402"/>
      <point x="60" y="286"/>
      <point x="14" y="121" type="curve" smooth="yes"/>
      <point x="-7" y="44"/>
      <point x="14" y="-10"/>
    </contour>
    <contour>
      <point x="283" y="-6" type="curve" smooth="yes"/>
      <point x="316" y="-6"/>
      <point x="368" y="39"/>
      <point x="418" y="106" type="curve"/>
      <point x="399" y="124" type="line"/>
      <point x="365" y="87"/>
      <point x="337" y="60"/>
      <point x="327" y="60" type="curve" smooth="yes"/>
      <point x="316" y="60"/>
      <point x="315" y="99"/>
      <point x="328" y="156" type="curve" smooth="yes"/>
      <point x="342" y="220"/>
      <point x="379" y="327"/>
      <point x="416" y="415" type="curve"/>
      <point x="393" y="408"/>
      <point x="367" y="404"/>
      <point x="347" y="405" type="curve"/>
      <point x="339" y="376"/>
      <point x="311" y="292"/>
      <point x="287" y="201" type="curve" smooth="yes"/>
      <point x="254" y="77"/>
      <point x="242" y="-6"/>
    </contour>
  </outline>
</glyph>
<glyph name="c" format="2">
  <advance width="361"/>
  <unicode hex="0063"/>
  <anchor x="123" y="0" name="bottom"/>
  <anchor x="217" y="402" name="top"/>
  <outline>
    <contour>
      <point x="124" y="-8" type="curve" smooth="yes"/>
      <point x="191" y="-8"/>
      <point x="265" y="35"/>
      <point x="303" y="95" type="curve"/>
      <point x="286" y="109" type="line"/>
      <point x="248" y="70"/>
      <point x="196" y="42"/>
      <point x="161" y="42" type="curve" smooth="yes"/>
      <point x="99" y="42"/>
      <point x="75" y="117"/>
      <point x="104" y="224" type="curve" smooth="yes"/>
      <point x="131" y="319"/>
      <point x="187" y="387"/>
      <point x="238" y="387" type="curve" smooth="yes"/>
      <point x="278" y="387"/>
      <point x="294" y="348"/>
      <point x="277" y="294" type="curve"/>
      <point x="276" y="283"/>
      <point x="281" y="275"/>
      <point x="289" y="275" type="curve" smooth="yes"/>
      <point x="320" y="275"/>
      <point x="347" y="292"/>
      <point x="354" y="316" type="curve" smooth="yes"/>
      <point x="368" y="373"/>
      <point x="325" y="414"/>
      <point x="250" y="414" type="curve" smooth="yes"/>
      <point x="158" y="414"/>
      <point x="69" y="326"/>
      <point x="35" y="201" type="curve" smooth="yes"/>
      <point x="2" y="79"/>
      <point x="39" y="-8"/>
    </contour>
  </outline>
</glyph>
<glyph name="d" format="2">
  <advance width="428"/>
  <unicode hex="0064"/>
  <anchor x="143" y="0" name="bottom"/>
  <anchor x="388" y="510" name="center"/>
  <anchor x="325" y="10" name="ogonek"/>
  <anchor x="284" y="401" name="top"/>
  <anchor x="506" y="637" name="topright"/>
  <outline>
    <contour>
      <point x="65" y="-10" type="curve" smooth="yes"/>
      <point x="130" y="-10"/>
      <point x="228" y="53"/>
      <point x="306" y="208" type="curve"/>
      <point x="296" y="249" type="line"/>
      <point x="238" y="132"/>
      <point x="142" y="46"/>
      <point x="101" y="46" type="curve" smooth="yes"/>
      <point x="73" y="46"/>
      <point x="68" y="96"/>
      <point x="83" y="155" type="curve" smooth="yes"/>
      <point x="117" y="283"/>
      <point x="189" y="363"/>
      <point x="253" y="363" type="curve" smooth="yes"/>
      <point x="274" y="363"/>
      <point x="305" y="355"/>
      <point x="315" y="333" type="curve"/>
      <point x="342" y="388" type="line"/>
      <point x="326" y="396"/>
      <point x="293" y="402"/>
      <point x="278" y="402" type="curve" smooth="yes"/>
      <point x="169" y="402"/>
      <point x="60" y="286"/>
      <point x="14" y="121" type="curve" smooth="yes"/>
      <point x="-7" y="44"/>
      <point x="14" y="-10"/>
    </contour>
    <contour>
      <point x="274" y="-6" type="curve" smooth="yes"/>
      <point x="307" y="-6"/>
      <point x="368" y="39"/>
      <point x="418" y="106" type="curve"/>
      <point x="399" y="124" type="line"/>
      <point x="365" y="87"/>
      <point x="336" y="56"/>
      <point x="326" y="56" type="curve" smooth="yes"/>
      <point x="315" y="56"/>
      <point x="314" y="95"/>
      <point x="327" y="152" type="curve" smooth="yes"/>
      <point x="331" y="170"/>
      <point x="335" y="195"/>
      <point x="342" y="217" type="curve" smooth="yes"/>
      <point x="368" y="308" type="line"/>
      <point x="437" y="538" type="line" smooth="yes"/>
      <point x="452" y="589"/>
      <point x="465" y="624"/>
      <point x="472" y="648" type="curve"/>
      <point x="424" y="640"/>
      <point x="371" y="636"/>
      <point x="323" y="636" type="curve"/>
      <point x="316" y="611" type="line"/>
      <point x="354" y="608"/>
      <point x="369" y="606"/>
      <point x="376" y="595" type="curve" smooth="yes"/>
      <point x="381" y="589"/>
      <point x="379" y="574"/>
      <point x="365" y="521" type="curve" smooth="yes"/>
      <point x="347" y="455"/>
      <point x="338" y="414"/>
      <point x="317" y="348" type="curve" smooth="yes"/>
      <point x="296" y="281" type="line"/>
      <point x="274" y="201" type="line" smooth="yes"/>
      <point x="240" y="78"/>
      <point x="233" y="-6"/>
    </contour>
  </outline>
</glyph>
<glyph name="e" format="2">
  <advance width="356"/>
  <unicode hex="0065"/>
  <anchor x="124" y="0" name="bottom"/>
  <anchor x="272" y="10" name="ogonek"/>
  <anchor x="218" y="402" name="top"/>
  <outline>
    <contour>
      <point x="124" y="-8" type="curve" smooth="yes"/>
      <point x="191" y="-8"/>
      <point x="265" y="35"/>
      <point x="303" y="95" type="curve"/>
      <point x="286" y="109" type="line"/>
      <point x="246" y="68"/>
      <point x="192" y="39"/>
      <point x="155" y="39" type="curve" smooth="yes"/>
      <point x="94" y="39"/>
      <point x="70" y="115"/>
      <point x="99" y="222" type="curve" smooth="yes"/>
      <point x="123" y="314"/>
      <point x="179" y="379"/>
      <point x="235" y="379" type="curve" smooth="yes"/>
      <point x="270" y="379"/>
      <point x="287" y="350"/>
      <point x="275" y="308" type="curve" smooth="yes"/>
      <point x="258" y="247"/>
      <point x="177" y="196"/>
      <point x="80" y="185" type="curve"/>
      <point x="77" y="157" type="line"/>
      <point x="208" y="170"/>
      <point x="316" y="238"/>
      <point x="339" y="322" type="curve" smooth="yes"/>
      <point x="351" y="375"/>
      <point x="320" y="413"/>
      <point x="263" y="413" type="curve" smooth="yes"/>
      <point x="163" y="413"/>
      <point x="68" y="325"/>
      <point x="35" y="201" type="curve" smooth="yes"/>
      <point x="2" y="79"/>
      <point x="39" y="-8"/>
    </contour>
  </outline>
</glyph>
<glyph name="f" format="2">
  <advance width="250"/>
  <unicode hex="0066"/>
  <anchor x="101" y="0" name="bottom"/>
  <anchor x="295" y="637" name="top"/>
  <outline>
    <contour>
      <point x="-138" y="-234" type="curve" smooth="yes"/>
      <point x="-113" y="-234"/>
      <point x="-62" y="-211"/>
      <point x="-27" y="-179" type="curve" smooth="yes"/>
      <point x="59" y="-98"/>
      <point x="124" y="118"/>
      <point x="152" y="241" type="curve" smooth="yes"/>
      <point x="169" y="323"/>
      <point x="188" y="414"/>
      <point x="214" y="498" type="curve" smooth="yes"/>
      <point x="237" y="574"/>
      <point x="291" y="620"/>
      <point x="332" y="620" type="curve" smooth="yes"/>
      <point x="376" y="620"/>
      <point x="395" y="581"/>
      <point x="383" y="542" type="curve" smooth="yes"/>
      <point x="378" y="529"/>
      <point x="384" y="520"/>
      <point x="394" y="520" type="curve" smooth="yes"/>
      <point x="425" y="520"/>
      <point x="454" y="538"/>
      <point x="460" y="561" type="curve" smooth="yes"/>
      <point x="473" y="610"/>
      <point x="429" y="643"/>
      <point x="354" y="643" type="curve" smooth="yes"/>
      <point x="253" y="643"/>
      <point x="159" y="559"/>
      <point x="131" y="434" type="curve" smooth="yes"/>
      <point x="120" y="383"/>
      <point x="103" y="318"/>
      <point x="91" y="254" type="curve" smooth="yes"/>
      <point x="70" y="149"/>
      <point x="18" y="-79"/>
      <point x="-37" y="-141" type="curve" smooth="yes"/>
      <point x="-47" y="-153"/>
      <point x="-69" y="-165"/>
      <point x="-78" y="-165" type="curve" smooth="yes"/>
      <point x="-86" y="-165"/>
      <point x="-89" y="-161"/>
      <point x="-94" y="-154" type="curve" smooth="yes"/>
      <point x="-98" y="-148"/>
      <point x="-102" y="-142"/>
      <point x="-113" y="-142" type="curve" smooth="yes"/>
      <point x="-145" y="-142"/>
      <point x="-168" y="-163"/>
      <point x="-177" y="-205" type="curve" smooth="yes"/>
      <point x="-180" y="-220"/>
      <point x="-165" y="-234"/>
    </contour>
    <contour>
      <point x="7" y="369" type="line"/>
      <point x="258" y="357" type="line"/>
      <point x="278" y="406" type="line"/>
      <point x="98" y="402" type="line"/>
      <point x="11" y="382" type="line"/>
    </contour>
  </outline>
</glyph>
<glyph name="g" format="2">
  <advance width="419"/>
  <unicode hex="0067"/>
  <anchor x="72" y="-230" name="bottom"/>
  <anchor x="265" y="402" name="top"/>
  <outline>
    <contour>
      <point x="97" y="-193" type="curve" smooth="yes"/>
      <point x="216" y="-193"/>
      <point x="331" y="-145"/>
      <point x="338" y="-81" type="curve" smooth="yes"/>
      <point x="343" y="-32"/>
      <point x="301" y="10"/>
      <point x="187" y="50" type="curve" smooth="yes"/>
      <point x="140" y="67"/>
      <point x="111" y="88"/>
      <point x="106" y="103" type="curve" smooth="yes"/>
      <point x="98" y="126"/>
      <point x="134" y="140"/>
      <point x="169" y="142" type="curve"/>
      <point x="169" y="146" type="line"/>
      <point x="124" y="154" type="line"/>
      <point x="84" y="148"/>
      <point x="56" y="123"/>
      <point x="49" y="101" type="curve" smooth="yes"/>
      <point x="37" y="64"/>
      <point x="101" y="11"/>
      <point x="179" y="-20" type="curve" smooth="yes"/>
      <point x="234" y="-42"/>
      <point x="283" y="-64"/>
      <point x="282" y="-86" type="curve" smooth="yes"/>
      <point x="280" y="-128"/>
      <point x="203" y="-157"/>
      <point x="138" y="-157" type="curve" smooth="yes"/>
      <point x="22" y="-157"/>
      <point x="-54" y="-97"/>
      <point x="0" y="-10" type="curve" smooth="yes"/>
      <point x="12" y="9"/>
      <point x="45" y="34"/>
      <point x="111" y="34" type="curve"/>
      <point x="84" y="60" type="line"/>
      <point x="8" y="60"/>
      <point x="-62" y="-2"/>
      <point x="-73" y="-55" type="curve" smooth="yes"/>
      <point x="-93" y="-136"/>
      <point x="-18" y="-193"/>
    </contour>
    <contour>
      <point x="160" y="127" type="curve" smooth="yes"/>
      <point x="237" y="127"/>
      <point x="318" y="184"/>
      <point x="340" y="264" type="curve" smooth="yes"/>
      <point x="365" y="351"/>
      <point x="316" y="414"/>
      <point x="237" y="414" type="curve" smooth="yes"/>
      <point x="163" y="414"/>
      <point x="88" y="359"/>
      <point x="66" y="281" type="curve" smooth="yes"/>
      <point x="42" y="192"/>
      <point x="86" y="127"/>
    </contour>
    <contour>
      <point x="171" y="154" type="curve" smooth="yes"/>
      <point x="139" y="154"/>
      <point x="109" y="208"/>
      <point x="136" y="288" type="curve" smooth="yes"/>
      <point x="154" y="346"/>
      <point x="210" y="386"/>
      <point x="236" y="386" type="curve" smooth="yes"/>
      <point x="267" y="386"/>
      <point x="290" y="332"/>
      <point x="268" y="253" type="curve" smooth="yes"/>
      <point x="252" y="194"/>
      <point x="203" y="154"/>
    </contour>
    <contour>
      <point x="282" y="178" type="line"/>
      <point x="317" y="284"/>
      <point x="366" y="358"/>
      <point x="398" y="358" type="curve" smooth="yes"/>
      <point x="401" y="358"/>
      <point x="405" y="357"/>
      <point x="409" y="356" type="curve" smooth="yes"/>
      <point x="413" y="355"/>
      <point x="417" y="354"/>
      <point x="419" y="354" type="curve" smooth="yes"/>
      <point x="430" y="354"/>
      <point x="445" y="368"/>
      <point x="452" y="386" type="curve" smooth="yes"/>
      <point x="458" y="403"/>
      <point x="447" y="414"/>
      <point x="429" y="414" type="curve" smooth="yes"/>
      <point x="385" y="414"/>
      <point x="318" y="332"/>
      <point x="268" y="220" type="curve"/>
    </contour>
  </outline>
</glyph>
<glyph name="h" format="2">
  <advance width="411"/>
  <unicode hex="0068"/>
  <anchor x="158" y="0" name="bottom"/>
  <anchor x="165" y="510" name="center"/>
  <anchor x="307" y="637" name="top"/>
  <outline>
    <contour>
      <point x="187" y="-14" type="curve" smooth="yes"/>
      <point x="258" y="-14"/>
      <point x="342" y="94"/>
      <point x="379" y="230" type="curve" smooth="yes"/>
      <point x="411" y="345"/>
      <point x="356" y="414"/>
      <point x="294" y="414" type="curve" smooth="yes"/>
      <point x="219" y="414"/>
      <point x="142" y="324"/>
      <point x="83" y="196" type="curve"/>
      <point x="107" y="179" type="line"/>
      <point x="154" y="290"/>
      <point x="205" y="372"/>
      <point x="258" y="372" type="curve" smooth="yes"/>
      <point x="290" y="372"/>
      <point x="331" y="318"/>
      <point x="311" y="225" type="curve" smooth="yes"/>
      <point x="285" y="106"/>
      <point x="229" y="12"/>
      <point x="195" y="12" type="curve" smooth="yes"/>
      <point x="181" y="12"/>
      <point x="196" y="43"/>
      <point x="204" y="75" type="curve"/>
      <point x="209" y="86"/>
      <point x="206" y="94"/>
      <point x="197" y="94" type="curve" smooth="yes"/>
      <point x="173" y="94"/>
      <point x="151" y="80"/>
      <point x="145" y="61" type="curve" smooth="yes"/>
      <point x="131" y="17"/>
      <point x="148" y="-14"/>
    </contour>
    <contour>
      <point x="-19" y="-8" type="curve"/>
      <point x="4" y="-9"/>
      <point x="33" y="-6"/>
      <point x="58" y="0" type="curve"/>
      <point x="78" y="66"/>
      <point x="123" y="242"/>
      <point x="143" y="308" type="curve" smooth="yes"/>
      <point x="166" y="385"/>
      <point x="191" y="461"/>
      <point x="214" y="538" type="curve"/>
      <point x="204" y="501"/>
      <point x="221" y="546"/>
      <point x="251" y="648" type="curve"/>
      <point x="207" y="641"/>
      <point x="147" y="636"/>
      <point x="107" y="636" type="curve"/>
      <point x="100" y="611" type="line"/>
      <point x="124" y="609"/>
      <point x="146" y="599"/>
      <point x="153" y="587" type="curve" smooth="yes"/>
      <point x="160" y="579"/>
      <point x="158" y="552"/>
      <point x="148" y="521" type="curve"/>
      <point x="128" y="455"/>
      <point x="108" y="389"/>
      <point x="88" y="323" type="curve" smooth="yes"/>
      <point x="45" y="182"/>
      <point x="1" y="45"/>
    </contour>
  </outline>
</glyph>
<glyph name="i" format="2">
  <advance width="250"/>
  <unicode hex="0069"/>
  <anchor x="87" y="0" name="bottom"/>
  <outline>
    <contour>
      <point x="198" y="522" type="curve" smooth="yes"/>
      <point x="224" y="522"/>
      <point x="248" y="541"/>
      <point x="255" y="567" type="curve" smooth="yes"/>
      <point x="262" y="595"/>
      <point x="249" y="615"/>
      <point x="223" y="615" type="curve" smooth="yes"/>
      <point x="197" y="615"/>
      <point x="173" y="598"/>
      <point x="166" y="573" type="curve" smooth="yes"/>
      <point x="158" y="543"/>
      <point x="171" y="522"/>
    </contour>
    <contour>
      <point x="126" y="284" type="curve" smooth="yes"/>
      <point x="53" y="80" type="line" smooth="yes"/>
      <point x="34" y="28"/>
      <point x="45" y="-8"/>
      <point x="80" y="-8" type="curve" smooth="yes"/>
      <point x="121" y="-8"/>
      <point x="185" y="35"/>
      <point x="232" y="98" type="curve"/>
      <point x="218" y="113" type="line"/>
      <point x="178" y="75"/>
      <point x="144" y="46"/>
      <point x="135" y="46" type="curve" smooth="yes"/>
      <point x="119" y="46"/>
      <point x="116" y="68"/>
      <point x="127" y="100" type="curve" smooth="yes"/>
      <point x="202" y="322" type="line" smooth="yes"/>
      <point x="220" y="375"/>
      <point x="209" y="413"/>
      <point x="175" y="413" type="curve" smooth="yes"/>
      <point x="133" y="413"/>
      <point x="70" y="367"/>
      <point x="26" y="301" type="curve"/>
      <point x="45" y="284" type="line"/>
      <point x="79" y="323"/>
      <point x="109" y="352"/>
      <point x="119" y="352" type="curve" smooth="yes"/>
      <point x="137" y="352"/>
      <point x="140" y="324"/>
    </contour>
  </outline>
</glyph>
<glyph name="m" format="2">
  <advance width="674"/>
  <unicode hex="006D"/>
  <anchor x="279" y="-1" name="bottom"/>
  <anchor x="382" y="402" name="top"/>
  <outline>
    <contour>
      <point x="495" y="-8" type="curve" smooth="yes"/>
      <point x="534" y="-8"/>
      <point x="601" y="36"/>
      <point x="643" y="98" type="curve"/>
      <point x="627" y="114" type="line"/>
      <point x="594" y="77"/>
      <point x="562" y="56"/>
      <point x="549" y="56" type="curve" smooth="yes"/>
      <point x="538" y="56"/>
      <point x="544" y="91"/>
      <point x="564" y="145" type="curve" smooth="yes"/>
      <point x="610" y="267" type="line" smooth="yes"/>
      <point x="643" y="356"/>
      <point x="636" y="416"/>
      <point x="588" y="416" type="curve" smooth="yes"/>
      <point x="492" y="416"/>
      <point x="397" y="318"/>
      <point x="333" y="144" type="curve"/>
      <point x="308" y="25" type="line"/>
      <point x="375" y="226"/>
      <point x="481" y="361"/>
      <point x="554" y="365" type="curve" smooth="yes"/>
      <point x="577" y="366"/>
      <point x="567" y="323"/>
      <point x="542" y="259" type="curve" smooth="yes"/>
      <point x="478" y="97" type="line" smooth="yes"/>
      <point x="453" y="33"/>
      <point x="456" y="-8"/>
    </contour>
    <contour>
      <point x="23" y="-9" type="curve"/>
      <point x="52" y="-11"/>
      <point x="79" y="-8"/>
      <point x="100" y="1" type="curve"/>
      <point x="120" y="59"/>
      <point x="151" y="177"/>
      <point x="188" y="332" type="curve" smooth="yes"/>
      <point x="199" y="384"/>
      <point x="187" y="413"/>
      <point x="155" y="413" type="curve" smooth="yes"/>
      <point x="122" y="413"/>
      <point x="64" y="366"/>
      <point x="18" y="297" type="curve"/>
      <point x="37" y="280" type="line"/>
      <point x="70" y="315"/>
      <point x="106" y="357"/>
      <point x="116" y="357" type="curve" smooth="yes"/>
      <point x="130" y="357"/>
      <point x="130" y="322"/>
      <point x="115" y="267" type="curve" smooth="yes"/>
      <point x="96" y="194"/>
      <point x="59" y="89"/>
    </contour>
    <contour>
      <point x="237" y="-9" type="curve"/>
      <point x="266" y="-12"/>
      <point x="292" y="-7"/>
      <point x="311" y="1" type="curve"/>
      <point x="311" y="1"/>
      <point x="335" y="87"/>
      <point x="377" y="243" type="curve" smooth="yes"/>
      <point x="377" y="243"/>
      <point x="381" y="259"/>
      <point x="389" y="288" type="curve" smooth="yes"/>
      <point x="411" y="369"/>
      <point x="402" y="414"/>
      <point x="370" y="414" type="curve" smooth="yes"/>
      <point x="283" y="414"/>
      <point x="181" y="321"/>
      <point x="124" y="153" type="curve"/>
      <point x="109" y="54" type="line"/>
      <point x="174" y="240"/>
      <point x="260" y="354"/>
      <point x="321" y="354" type="curve" smooth="yes"/>
      <point x="342" y="354"/>
      <point x="343" y="311"/>
      <point x="320" y="234" type="curve" smooth="yes"/>
      <point x="287" y="119"/>
      <point x="253" y="26"/>
    </contour>
  </outline>
</glyph>
<glyph name="n" format="2">
  <advance width="473"/>
  <unicode hex="006E"/>
  <anchor x="157" y="0" name="bottom"/>
  <anchor x="265" y="402" name="top"/>
  <outline>
    <contour>
      <point x="20" y="-9" type="curve"/>
      <point x="49" y="-3"/>
      <point x="76" y="0"/>
      <point x="97" y="1" type="curve"/>
      <point x="117" y="59"/>
      <point x="148" y="177"/>
      <point x="185" y="332" type="curve" smooth="yes"/>
      <point x="196" y="384"/>
      <point x="184" y="413"/>
      <point x="152" y="413" type="curve" smooth="yes"/>
      <point x="119" y="413"/>
      <point x="61" y="366"/>
      <point x="14" y="297" type="curve"/>
      <point x="33" y="280" type="line"/>
      <point x="67" y="315"/>
      <point x="106" y="357"/>
      <point x="116" y="357" type="curve" smooth="yes"/>
      <point x="130" y="357"/>
      <point x="130" y="322"/>
      <point x="115" y="267" type="curve" smooth="yes"/>
      <point x="96" y="194"/>
      <point x="56" y="89"/>
    </contour>
    <contour>
      <point x="294" y="-8" type="curve" smooth="yes"/>
      <point x="333" y="-8"/>
      <point x="400" y="36"/>
      <point x="442" y="99" type="curve"/>
      <point x="426" y="114" type="line"/>
      <point x="393" y="77"/>
      <point x="361" y="56"/>
      <point x="348" y="56" type="curve" smooth="yes"/>
      <point x="337" y="56"/>
      <point x="343" y="91"/>
      <point x="363" y="145" type="curve" smooth="yes"/>
      <point x="409" y="267" type="line" smooth="yes"/>
      <point x="442" y="356"/>
      <point x="435" y="416"/>
      <point x="387" y="416" type="curve" smooth="yes"/>
      <point x="291" y="416"/>
      <point x="186" y="318"/>
      <point x="122" y="144" type="curve"/>
      <point x="97" y="25" type="line"/>
      <point x="164" y="226"/>
      <point x="280" y="361"/>
      <point x="353" y="365" type="curve" smooth="yes"/>
      <point x="376" y="366"/>
      <point x="366" y="323"/>
      <point x="341" y="259" type="curve" smooth="yes"/>
      <point x="277" y="97" type="line" smooth="yes"/>
      <point x="252" y="33"/>
      <point x="255" y="-8"/>
    </contour>
  </outline>
</glyph>
<glyph name="o" format="2">
  <advance width="426"/>
  <unicode hex="006F"/>
  <anchor x="145" y="0" name="bottom"/>
  <anchor x="199" y="201" name="center"/>
  <anchor x="306" y="10" name="ogonek"/>
  <anchor x="253" y="402" name="top"/>
  <anchor x="431" y="402" name="topright"/>
  <outline>
    <contour>
      <point x="144" y="-8" type="curve" smooth="yes"/>
      <point x="245" y="-8"/>
      <point x="347" y="76"/>
      <point x="379" y="195" type="curve" smooth="yes"/>
      <point x="414" y="324"/>
      <point x="367" y="415"/>
      <point x="275" y="415" type="curve" smooth="yes"/>
      <point x="174" y="415"/>
      <point x="70" y="331"/>
      <point x="38" y="212" type="curve" smooth="yes"/>
      <point x="3" y="83"/>
      <point x="52" y="-8"/>
    </contour>
    <contour>
      <point x="157" y="19" type="curve" smooth="yes"/>
      <point x="107" y="19"/>
      <point x="79" y="83"/>
      <point x="103" y="174" type="curve" smooth="yes"/>
      <point x="127" y="299"/>
      <point x="199" y="388"/>
      <point x="262" y="388" type="curve" smooth="yes"/>
      <point x="310" y="388"/>
      <point x="336" y="324"/>
      <point x="312" y="233" type="curve" smooth="yes"/>
      <point x="288" y="108"/>
      <point x="219" y="19"/>
    </contour>
  </outline>
</glyph>
<glyph name="q" format="2">
  <advance width="427"/>
  <unicode hex="0071"/>
  <anchor x="245" y="-193" name="bottom"/>
  <anchor x="261" y="402" name="top"/>
  <outline>
    <contour>
      <point x="75" y="-10" type="curve" smooth="yes"/>
      <point x="140" y="-10"/>
      <point x="229" y="53"/>
      <point x="307" y="208" type="curve"/>
      <point x="297" y="249" type="line"/>
      <point x="239" y="132"/>
      <point x="157" y="46"/>
      <point x="116" y="46" type="curve" smooth="yes"/>
      <point x="88" y="46"/>
      <point x="73" y="99"/>
      <point x="88" y="158" type="curve" smooth="yes"/>
      <point x="122" y="286"/>
      <point x="199" y="366"/>
      <point x="263" y="366" type="curve" smooth="yes"/>
      <point x="284" y="366"/>
      <point x="315" y="355"/>
      <point x="325" y="333" type="curve"/>
      <point x="352" y="388" type="line"/>
      <point x="336" y="396"/>
      <point x="303" y="402"/>
      <point x="288" y="402" type="curve" smooth="yes"/>
      <point x="179" y="402"/>
      <point x="60" y="286"/>
      <point x="14" y="121" type="curve" smooth="yes"/>
      <point x="-7" y="44"/>
      <point x="24" y="-10"/>
    </contour>
    <contour>
      <point x="62" y="-212" type="line"/>
      <point x="313" y="-212" type="line"/>
      <point x="320" y="-187" type="line"/>
      <point x="281" y="-183"/>
      <point x="255" y="-176"/>
      <point x="246" y="-167" type="curve" smooth="yes"/>
      <point x="237" y="-159"/>
      <point x="235" y="-143"/>
      <point x="242" y="-121" type="curve" smooth="yes"/>
      <point x="417" y="412" type="line"/>
      <point x="392" y="404"/>
      <point x="376" y="399"/>
      <point x="345" y="400" type="curve"/>
      <point x="175" y="-121" type="line" smooth="yes"/>
      <point x="168" y="-142"/>
      <point x="157" y="-160"/>
      <point x="141" y="-171" type="curve" smooth="yes"/>
      <point x="125" y="-178"/>
      <point x="99" y="-184"/>
      <point x="69" y="-187" type="curve"/>
    </contour>
  </outline>
</glyph>
<glyph name="r" format="2">
  <advance width="343"/>
  <unicode hex="0072"/>
  <anchor x="124" y="0" name="bottom"/>
  <anchor x="218" y="402" name="top"/>
  <outline>
    <contour>
      <point x="19" y="-10" type="curve"/>
      <point x="48" y="-11"/>
      <point x="76" y="-7"/>
      <point x="96" y="0" type="curve"/>
      <point x="115" y="73"/>
      <point x="135" y="128"/>
      <point x="148" y="176" type="curve" smooth="yes"/>
      <point x="168" y="250"/>
      <point x="181" y="306"/>
      <point x="185" y="332" type="curve" smooth="yes"/>
      <point x="194" y="384"/>
      <point x="183" y="413"/>
      <point x="156" y="413" type="curve" smooth="yes"/>
      <point x="125" y="413"/>
      <point x="73" y="372"/>
      <point x="14" y="297" type="curve"/>
      <point x="33" y="280" type="line"/>
      <point x="69" y="322"/>
      <point x="104" y="357"/>
      <point x="117" y="357" type="curve" smooth="yes"/>
      <point x="131" y="357"/>
      <point x="130" y="324"/>
      <point x="115" y="266" type="curve" smooth="yes"/>
      <point x="89" y="173"/>
      <point x="49" y="68"/>
    </contour>
    <contour>
      <point x="105" y="33" type="line"/>
      <point x="154" y="223"/>
      <point x="221" y="328"/>
      <point x="275" y="328" type="curve" smooth="yes"/>
      <point x="281" y="328"/>
      <point x="285" y="325"/>
      <point x="291" y="322" type="curve" smooth="yes"/>
      <point x="296" y="320"/>
      <point x="301" y="318"/>
      <point x="309" y="318" type="curve" smooth="yes"/>
      <point x="332" y="318"/>
      <point x="350" y="339"/>
      <point x="360" y="376" type="curve" smooth="yes"/>
      <point x="366" y="400"/>
      <point x="353" y="413"/>
      <point x="324" y="413" type="curve" smooth="yes"/>
      <point x="253" y="413"/>
      <point x="165" y="300"/>
      <point x="96" y="98" type="curve"/>
    </contour>
  </outline>
</glyph>
<glyph name="s" format="2">
  <advance width="316"/>
  <unicode hex="0073"/>
  <anchor x="101" y="0" name="bottom"/>
  <anchor x="209" y="402" name="top"/>
  <outline>
    <contour>
      <point x="168" y="65" type="curve" smooth="yes"/>
      <point x="159" y="33"/>
      <point x="134" y="13"/>
      <point x="105" y="13" type="curve" smooth="yes"/>
      <point x="75" y="13"/>
      <point x="51" y="43"/>
      <point x="64" y="86" type="curve"/>
      <point x="72" y="104"/>
      <point x="68" y="117"/>
      <point x="53" y="117" type="curve" smooth="yes"/>
      <point x="27" y="117"/>
      <point x="6" y="97"/>
      <point x="-1" y="68" type="curve" smooth="yes"/>
      <point x="-14" y="20"/>
      <point x="32" y="-14"/>
      <point x="98" y="-14" type="curve" smooth="yes"/>
      <point x="165" y="-14"/>
      <point x="222" y="32"/>
      <point x="233" y="94" type="curve" smooth="yes"/>
      <point x="250" y="187"/>
      <point x="131" y="233"/>
      <point x="161" y="353" type="curve" smooth="yes"/>
      <point x="167" y="373"/>
      <point x="185" y="386"/>
      <point x="213" y="386" type="curve" smooth="yes"/>
      <point x="238" y="386"/>
      <point x="261" y="362"/>
      <point x="247" y="327" type="curve" smooth="yes"/>
      <point x="242" y="314"/>
      <point x="256" y="305"/>
      <point x="267" y="305" type="curve" smooth="yes"/>
      <point x="291" y="305"/>
      <point x="303" y="322"/>
      <point x="310" y="345" type="curve" smooth="yes"/>
      <point x="322" y="385"/>
      <point x="281" y="413"/>
      <point x="225" y="413" type="curve" smooth="yes"/>
      <point x="165" y="413"/>
      <point x="114" y="378"/>
      <point x="103" y="337" type="curve" smooth="yes"/>
      <point x="67" y="206"/>
      <point x="199" y="170"/>
    </contour>
  </outline>
</glyph>
<glyph name="u" format="2">
  <advance width="472"/>
  <unicode hex="0075"/>
  <anchor x="184" y="0" name="bottom"/>
  <anchor x="374" y="10" name="ogonek"/>
  <anchor x="278" y="402" name="top"/>
  <anchor x="492" y="402" name="topright"/>
  <outline>
    <contour>
      <point x="455" y="417" type="curve"/>
      <point x="426" y="411"/>
      <point x="405" y="408"/>
      <point x="384" y="407" type="curve"/>
      <point x="368" y="349"/>
      <point x="330" y="225"/>
      <point x="287" y="71" type="curve" smooth="yes"/>
      <point x="274" y="24"/>
      <point x="286" y="-8"/>
      <point x="309" y="-8" type="curve" smooth="yes"/>
      <point x="358" y="-8"/>
      <point x="411" y="30"/>
      <point x="457" y="99" type="curve"/>
      <point x="441" y="114" type="line"/>
      <point x="408" y="77"/>
      <point x="370" y="46"/>
      <point x="353" y="46" type="curve" smooth="yes"/>
      <point x="339" y="46"/>
      <point x="345" y="86"/>
      <point x="360" y="141" type="curve" smooth="yes"/>
      <point x="379" y="214"/>
      <point x="419" y="319"/>
    </contour>
    <contour>
      <point x="167" y="413" type="curve" smooth="yes"/>
      <point x="128" y="413"/>
      <point x="78" y="372"/>
      <point x="29" y="297" type="curve"/>
      <point x="48" y="280" type="line"/>
      <point x="86" y="328"/>
      <point x="112" y="366"/>
      <point x="132" y="366" type="curve" smooth="yes"/>
      <point x="157" y="366"/>
      <point x="140" y="321"/>
      <point x="124" y="281" type="curve" smooth="yes"/>
      <point x="75" y="159" type="line" smooth="yes"/>
      <point x="32" y="52"/>
      <point x="40" y="-8"/>
      <point x="108" y="-8" type="curve" smooth="yes"/>
      <point x="184" y="-8"/>
      <point x="289" y="90"/>
      <point x="353" y="264" type="curve"/>
      <point x="378" y="383" type="line"/>
      <point x="311" y="182"/>
      <point x="195" y="47"/>
      <point x="142" y="44" type="curve" smooth="yes"/>
      <point x="99" y="42"/>
      <point x="107" y="85"/>
      <point x="139" y="167" type="curve" smooth="yes"/>
      <point x="203" y="329" type="line" smooth="yes"/>
      <point x="222" y="377"/>
      <point x="208" y="413"/>
    </contour>
  </outline>
</glyph>
<glyph name="w" format="2">
  <advance width="619"/>
  <unicode hex="0077"/>
  <anchor x="269" y="0" name="bottom"/>
  <anchor x="363" y="402" name="top"/>
  <outline>
    <contour>
      <point x="162" y="-8" type="curve" smooth="yes"/>
      <point x="289" y="-8"/>
      <point x="405" y="124"/>
      <point x="431" y="320" type="curve"/>
      <point x="384" y="266" type="line"/>
      <point x="361" y="137"/>
      <point x="284" y="58"/>
      <point x="195" y="58" type="curve" smooth="yes"/>
      <point x="142" y="58"/>
      <point x="111" y="107"/>
      <point x="136" y="184" type="curve" smooth="yes"/>
      <point x="158" y="248"/>
      <point x="196" y="264"/>
      <point x="215" y="333" type="curve" smooth="yes"/>
      <point x="228" y="380"/>
      <point x="209" y="414"/>
      <point x="168" y="414" type="curve" smooth="yes"/>
      <point x="141" y="414"/>
      <point x="83" y="367"/>
      <point x="27" y="300" type="curve"/>
      <point x="53" y="279" type="line"/>
      <point x="78" y="316"/>
      <point x="115" y="351"/>
      <point x="131" y="351" type="curve" smooth="yes"/>
      <point x="157" y="351"/>
      <point x="157" y="320"/>
      <point x="144" y="276" type="curve" smooth="yes"/>
      <point x="130" y="227"/>
      <point x="91" y="185"/>
      <point x="78" y="128" type="curve" smooth="yes"/>
      <point x="60" y="51"/>
      <point x="101" y="-8"/>
    </contour>
    <contour>
      <point x="366" y="-8" type="curve" smooth="yes"/>
      <point x="469" y="-8"/>
      <point x="547" y="86"/>
      <point x="595" y="227" type="curve" smooth="yes"/>
      <point x="633" y="340"/>
      <point x="612" y="423"/>
      <point x="560" y="423" type="curve" smooth="yes"/>
      <point x="533" y="423"/>
      <point x="509" y="396"/>
      <point x="503" y="373" type="curve" smooth="yes"/>
      <point x="494" y="340"/>
      <point x="509" y="329"/>
      <point x="527" y="329" type="curve" smooth="yes"/>
      <point x="563" y="329"/>
      <point x="581" y="283"/>
      <point x="552" y="209" type="curve" smooth="yes"/>
      <point x="519" y="125"/>
      <point x="461" y="58"/>
      <point x="399" y="58" type="curve" smooth="yes"/>
      <point x="324" y="58"/>
      <point x="280" y="114"/>
      <point x="303" y="233" type="curve" smooth="yes"/>
      <point x="333" y="386"/>
      <point x="400" y="341"/>
      <point x="384" y="266" type="curve"/>
      <point x="431" y="320" type="line"/>
      <point x="448" y="427"/>
      <point x="323" y="461"/>
      <point x="280" y="261" type="curve" smooth="yes"/>
      <point x="246" y="103"/>
      <point x="283" y="-8"/>
    </contour>
  </outline>
</glyph>
<glyph name="x" format="2">
  <advance width="431"/>
  <unicode hex="0078"/>
  <anchor x="140" y="0" name="bottom"/>
  <anchor x="262" y="402" name="top"/>
  <outline>
    <contour>
      <point x="8" y="-9" type="curve" smooth="yes"/>
      <point x="53" y="-9"/>
      <point x="154" y="113"/>
      <point x="224" y="207" type="curve" smooth="yes"/>
      <point x="276" y="277"/>
      <point x="340" y="345"/>
      <point x="354" y="345" type="curve" smooth="yes"/>
      <point x="381" y="345"/>
      <point x="394" y="324"/>
      <point x="393" y="304" type="curve"/>
      <point x="445" y="366" type="line"/>
      <point x="431" y="394"/>
      <point x="408" y="414"/>
      <point x="391" y="414" type="curve" smooth="yes"/>
      <point x="356" y="414"/>
      <point x="250" y="290"/>
      <point x="174" y="192" type="curve" smooth="yes"/>
      <point x="123" y="126"/>
      <point x="63" y="64"/>
      <point x="54" y="64" type="curve" smooth="yes"/>
      <point x="42" y="64"/>
      <point x="35" y="87"/>
      <point x="28" y="106" type="curve"/>
      <point x="-34" y="59" type="line"/>
      <point x="-24" y="20"/>
      <point x="-6" y="-9"/>
    </contour>
    <contour>
      <point x="265" y="-9" type="curve" smooth="yes"/>
      <point x="303" y="-9"/>
      <point x="365" y="35"/>
      <point x="397" y="75" type="curve"/>
      <point x="376" y="96" type="line"/>
      <point x="359" y="74"/>
      <point x="322" y="49"/>
      <point x="301" y="49" type="curve" smooth="yes"/>
      <point x="292" y="49"/>
      <point x="264" y="113"/>
      <point x="251" y="188" type="curve" smooth="yes"/>
      <point x="232" y="291"/>
      <point x="199" y="414"/>
      <point x="165" y="414" type="curve" smooth="yes"/>
      <point x="133" y="414"/>
      <point x="71" y="366"/>
      <point x="32" y="320" type="curve"/>
      <point x="56" y="299" type="line"/>
      <point x="85" y="337"/>
      <point x="102" y="344"/>
      <point x="121" y="344" type="curve" smooth="yes"/>
      <point x="134" y="344"/>
      <point x="160" y="284"/>
      <point x="172" y="213" type="curve" smooth="yes"/>
      <point x="189" y="112"/>
      <point x="220" y="-9"/>
    </contour>
  </outline>
</glyph>
<glyph name="y" format="2">
  <advance width="439"/>
  <unicode hex="0079"/>
  <anchor x="166" y="0" name="bottom"/>
  <anchor x="260" y="402" name="top"/>
  <outline>
    <contour>
      <point x="86" y="-228" type="curve" smooth="yes"/>
      <point x="144" y="-228"/>
      <point x="234" y="-84"/>
      <point x="319" y="50" type="curve" smooth="yes"/>
      <point x="374" y="138"/>
      <point x="410" y="232"/>
      <point x="419" y="279" type="curve" smooth="yes"/>
      <point x="443" y="358"/>
      <point x="426" y="414"/>
      <point x="379" y="414" type="curve" smooth="yes"/>
      <point x="348" y="414"/>
      <point x="322" y="394"/>
      <point x="316" y="366" type="curve" smooth="yes"/>
      <point x="309" y="337"/>
      <point x="329" y="325"/>
      <point x="354" y="325" type="curve" smooth="yes"/>
      <point x="411" y="325"/>
      <point x="384" y="219"/>
      <point x="291" y="68" type="curve" smooth="yes"/>
      <point x="220" y="-48"/>
      <point x="137" y="-193"/>
      <point x="97" y="-193" type="curve" smooth="yes"/>
      <point x="77" y="-193"/>
      <point x="63" y="-179"/>
      <point x="71" y="-144" type="curve" smooth="yes"/>
      <point x="77" y="-126"/>
      <point x="72" y="-105"/>
      <point x="60" y="-105" type="curve" smooth="yes"/>
      <point x="24" y="-105"/>
      <point x="4" y="-116"/>
      <point x="-2" y="-145" type="curve" smooth="yes"/>
      <point x="-14" y="-194"/>
      <point x="23" y="-228"/>
    </contour>
    <contour>
      <point x="17" y="300" type="curve"/>
      <point x="43" y="279" type="line"/>
      <point x="71" y="320"/>
      <point x="90" y="342"/>
      <point x="113" y="342" type="curve" smooth="yes"/>
      <point x="149" y="342"/>
      <point x="197" y="190"/>
      <point x="242" y="-34" type="curve"/>
      <point x="287" y="58" type="line"/>
      <point x="246" y="277"/>
      <point x="198" y="414"/>
      <point x="148" y="414" type="curve" smooth="yes"/>
      <point x="120" y="414"/>
      <point x="66" y="367"/>
    </contour>
  </outline>
</glyph>
<glyph name="z" format="2">
  <advance width="394"/>
  <unicode hex="007A"/>
  <anchor x="138" y="0" name="bottom"/>
  <anchor x="185" y="201" name="center"/>
  <anchor x="232" y="402" name="top"/>
  <outline>
    <contour>
      <point x="11" y="10" type="line"/>
      <point x="387" y="383" type="line"/>
      <point x="363" y="396" type="line"/>
      <point x="-15" y="23" type="line"/>
    </contour>
    <contour>
      <point x="17" y="0" type="line"/>
      <point x="33" y="18"/>
      <point x="59" y="28"/>
      <point x="77" y="28" type="curve" smooth="yes"/>
      <point x="91" y="28"/>
      <point x="105" y="23"/>
      <point x="123" y="16" type="curve" smooth="yes"/>
      <point x="154" y="3"/>
      <point x="183" y="-7"/>
      <point x="204" y="-8" type="curve" smooth="yes"/>
      <point x="241" y="-11"/>
      <point x="293" y="17"/>
      <point x="319" y="58" type="curve" smooth="yes"/>
      <point x="359" y="128" type="line"/>
      <point x="338" y="138" type="line"/>
      <point x="307" y="94" type="line" smooth="yes"/>
      <point x="292" y="71"/>
      <point x="251" y="45"/>
      <point x="223" y="47" type="curve" smooth="yes"/>
      <point x="212" y="48"/>
      <point x="195" y="56"/>
      <point x="178" y="63" type="curve" smooth="yes"/>
      <point x="158" y="72"/>
      <point x="136" y="81"/>
      <point x="119" y="83" type="curve" smooth="yes"/>
      <point x="71" y="86"/>
      <point x="15" y="61"/>
      <point x="-15" y="23" type="curve"/>
    </contour>
    <contour>
      <point x="59" y="267" type="line"/>
      <point x="88" y="311" type="line" smooth="yes"/>
      <point x="101" y="334"/>
      <point x="139" y="359"/>
      <point x="163" y="357" type="curve" smooth="yes"/>
      <point x="173" y="357"/>
      <point x="190" y="349"/>
      <point x="206" y="342" type="curve" smooth="yes"/>
      <point x="225" y="334"/>
      <point x="246" y="324"/>
      <point x="261" y="323" type="curve" smooth="yes"/>
      <point x="306" y="319"/>
      <point x="350" y="339"/>
      <point x="387" y="383" type="curve"/>
      <point x="358" y="406" type="line"/>
      <point x="344" y="388"/>
      <point x="313" y="377"/>
      <point x="288" y="379" type="curve" smooth="yes"/>
      <point x="283" y="379"/>
      <point x="272" y="384"/>
      <point x="258" y="390" type="curve" smooth="yes"/>
      <point x="238" y="400"/>
      <point x="211" y="412"/>
      <point x="190" y="414" type="curve" smooth="yes"/>
      <point x="147" y="417"/>
      <point x="97" y="389"/>
      <point x="73" y="348" type="curve" smooth="yes"/>
      <point x="35" y="277" type="line"/>
    </contour>
  </outline>
</glyph>
<glyph name="exclamdown" format="2">
  <advance width="249"/>
  <unicode hex="00A1"/>
  <outline>
    <contour>
      <point x="194" y="468" type="curve" smooth="yes"/>
      <point x="171" y="468"/>
      <point x="150" y="449"/>
      <point x="140" y="426" type="curve" smooth="yes"/>
      <point x="129" y="403"/>
      <point x="143" y="384"/>
      <point x="170" y="384" type="curve" smooth="yes"/>
      <point x="193" y="384"/>
      <point x="217" y="403"/>
      <point x="224" y="426" type="curve" smooth="yes"/>
      <point x="230" y="449"/>
      <point x="217" y="468"/>
    </contour>
    <contour>
      <point x="172" y="284" type="curve"/>
      <point x="110" y="276" type="line"/>
      <point x="74" y="142"/>
      <point x="21" y="-14"/>
      <point x="-39" y="-170" type="curve"/>
      <point x="73" y="-158" type="line"/>
      <point x="98" y="-6"/>
      <point x="138" y="154"/>
    </contour>
  </outline>
</glyph>
<glyph name="paragraph" format="2">
  <advance width="535"/>
  <unicode hex="00B6"/>
  <outline>
    <contour>
      <point x="83" y="-232" type="curve" smooth="yes"/>
      <point x="105" y="-232"/>
      <point x="146" y="-213"/>
      <point x="181" y="-187" type="curve" smooth="yes"/>
      <point x="261" y="-127"/>
      <point x="344" y="15"/>
      <point x="380" y="148" type="curve" smooth="yes"/>
      <point x="423" y="310" type="line"/>
      <point x="484" y="519" type="line" smooth="yes"/>
      <point x="492" y="547"/>
      <point x="509" y="569"/>
      <point x="527" y="577" type="curve" smooth="yes"/>
      <point x="535" y="581"/>
      <point x="554" y="585"/>
      <point x="594" y="590" type="curve"/>
      <point x="601" y="616" type="line"/>
      <point x="563" y="620"/>
      <point x="511" y="623"/>
      <point x="475" y="623" type="curve" smooth="yes"/>
      <point x="292" y="623"/>
      <point x="146" y="533"/>
      <point x="104" y="383" type="curve" smooth="yes"/>
      <point x="68" y="255"/>
      <point x="141" y="148"/>
      <point x="300" y="141" type="curve"/>
      <point x="283" y="81" type="line" smooth="yes"/>
      <point x="261" y="4"/>
      <point x="233" y="-74"/>
      <point x="218" y="-101" type="curve"/>
      <point x="218" y="-100" type="line"/>
      <point x="199" y="-133"/>
      <point x="173" y="-157"/>
      <point x="156" y="-157" type="curve" smooth="yes"/>
      <point x="137" y="-158"/>
      <point x="141" y="-135"/>
      <point x="122" y="-134" type="curve" smooth="yes"/>
      <point x="89" y="-134"/>
      <point x="58" y="-163"/>
      <point x="47" y="-203" type="curve" smooth="yes"/>
      <point x="42" y="-220"/>
      <point x="57" y="-232"/>
    </contour>
    <contour>
      <point x="310" y="177" type="curve"/>
      <point x="294" y="178"/>
      <point x="267" y="180"/>
      <point x="262" y="182" type="curve"/>
      <point x="375" y="582" type="line"/>
      <point x="386" y="585"/>
      <point x="414" y="585"/>
      <point x="425" y="585" type="curve"/>
      <point x="421" y="570"/>
      <point x="342" y="291"/>
    </contour>
  </outline>
</glyph>
<glyph name="questiondown" format="2">
  <advance width="396"/>
  <unicode hex="00BF"/>
  <outline>
    <contour>
      <point x="230" y="284" type="curve" smooth="yes"/>
      <point x="221" y="284"/>
      <point x="184" y="270"/>
      <point x="139" y="251" type="curve"/>
      <point x="138" y="238" type="line"/>
      <point x="169" y="237" type="line" smooth="yes"/>
      <point x="194" y="236"/>
      <point x="207" y="218"/>
      <point x="200" y="194" type="curve" smooth="yes"/>
      <point x="176" y="107"/>
      <point x="34" y="108"/>
      <point x="-2" y="-12" type="curve"/>
      <point x="-19" y="-73"/>
      <point x="12" y="-117"/>
      <point x="73" y="-117" type="curve" smooth="yes"/>
      <point x="102" y="-117"/>
      <point x="151" y="-100"/>
      <point x="196" y="-76" type="curve" smooth="yes"/>
      <point x="235" y="-54"/>
      <point x="267" y="-17"/>
      <point x="276" y="14" type="curve" smooth="yes"/>
      <point x="284" y="45"/>
      <point x="209" y="31"/>
      <point x="200" y="0" type="curve" smooth="yes"/>
      <point x="195" y="-16"/>
      <point x="203" y="-12"/>
      <point x="199" y="-27" type="curve" smooth="yes"/>
      <point x="192" y="-54"/>
      <point x="163" y="-73"/>
      <point x="135" y="-73" type="curve" smooth="yes"/>
      <point x="85" y="-73"/>
      <point x="64" y="-46"/>
      <point x="76" y="-6" type="curve" smooth="yes"/>
      <point x="121" y="137"/>
      <point x="256" y="137"/>
      <point x="280" y="221" type="curve" smooth="yes"/>
      <point x="290" y="258"/>
      <point x="266" y="284"/>
    </contour>
    <contour>
      <point x="270" y="460" type="curve" smooth="yes"/>
      <point x="248" y="460"/>
      <point x="225" y="442"/>
      <point x="219" y="420" type="curve" smooth="yes"/>
      <point x="213" y="398"/>
      <point x="226" y="380"/>
      <point x="248" y="380" type="curve" smooth="yes"/>
      <point x="270" y="380"/>
      <point x="293" y="398"/>
      <point x="299" y="420" type="curve" smooth="yes"/>
      <point x="305" y="442"/>
      <point x="292" y="460"/>
    </contour>
  </outline>
</glyph>
<glyph name="dotaccentcomb" format="2">
  <unicode hex="0307"/>
  <anchor x="180" y="384" name="_top"/>
  <anchor x="180" y="615" name="top"/>
  <outline>
    <contour>
      <point x="180" y="534" type="curve" smooth="yes"/>
      <point x="206" y="534"/>
      <point x="228" y="555"/>
      <point x="228" y="580" type="curve" smooth="yes"/>
      <point x="228" y="606"/>
      <point x="206" y="628"/>
      <point x="180" y="628" type="curve" smooth="yes"/>
      <point x="155" y="628"/>
      <point x="134" y="606"/>
      <point x="134" y="580" type="curve" smooth="yes"/>
      <point x="134" y="555"/>
      <point x="155" y="534"/>
    </contour>
  </outline>
</glyph>
<glyph name="dieresiscomb" format="2">
  <unicode hex="0308"/>
  <anchor x="212" y="435" name="_top"/>
  <anchor x="289" y="703" name="top"/>
  <outline>
    <contour>
      <point x="163" y="548" type="curve" smooth="yes"/>
      <point x="193" y="548"/>
      <point x="219" y="568"/>
      <point x="227" y="597" type="curve" smooth="yes"/>
      <point x="235" y="626"/>
      <point x="222" y="646"/>
      <point x="197" y="646" type="curve" smooth="yes"/>
      <point x="167" y="646"/>
      <point x="140" y="626"/>
      <point x="132" y="597" type="curve" smooth="yes"/>
      <point x="124" y="568"/>
      <point x="137" y="548"/>
    </contour>
    <contour>
      <point x="307" y="548" type="curve" smooth="yes"/>
      <point x="337" y="548"/>
      <point x="364" y="568"/>
      <point x="372" y="597" type="curve" smooth="yes"/>
      <point x="380" y="626"/>
      <point x="367" y="646"/>
      <point x="341" y="646" type="curve" smooth="yes"/>
      <point x="311" y="646"/>
      <point x="285" y="626"/>
      <point x="277" y="597" type="curve" smooth="yes"/>
      <point x="269" y="568"/>
      <point x="282" y="548"/>
    </contour>
  </outline>
</glyph>
<glyph name="brevecomb.case" format="2">
  <anchor x="183" y="616" name="_top"/>
  <anchor x="183" y="800" name="top"/>
  <outline>
    <contour>
      <point x="182" y="674" type="curve" smooth="yes"/>
      <point x="259" y="674"/>
      <point x="313" y="726"/>
      <point x="313" y="800" type="curve"/>
      <point x="280" y="800" type="line"/>
      <point x="280" y="757"/>
      <point x="239" y="727"/>
      <point x="182" y="727" type="curve" smooth="yes"/>
      <point x="125" y="727"/>
      <point x="85" y="757"/>
      <point x="85" y="800" type="curve"/>
      <point x="52" y="800" type="line"/>
      <point x="52" y="726"/>
      <point x="106" y="674"/>
    </contour>
  </outline>
</glyph>
<glyph name="caroncomb.alt.sc" format="2">
  <anchor x="126" y="694" name="_topright"/>
  <outline>
    <contour>
      <point x="146" y="428" type="line"/>
      <point x="165" y="424" type="line"/>
      <point x="230" y="610" type="line"/>
      <point x="232" y="618"/>
      <point x="212" y="623"/>
      <point x="192" y="628" type="curve" smooth="yes"/>
      <point x="171" y="631"/>
      <point x="154" y="627"/>
      <point x="153" y="618" type="curve"/>
    </contour>
  </outline>
</glyph>
<glyph name="cedillacomb.sc" format="2">
  <anchor x="180" y="0" name="_bottom"/>
  <anchor x="159" y="-234" name="bottom"/>
  <outline>
    <contour>
      <point x="160" y="2" type="line"/>
      <point x="149" y="-28"/>
      <point x="136" y="-69"/>
      <point x="127" y="-97" type="curve"/>
      <point x="125" y="-101"/>
      <point x="129" y="-104"/>
      <point x="138" y="-104" type="curve" smooth="yes"/>
      <point x="196" y="-104"/>
      <point x="238" y="-122"/>
      <point x="238" y="-149" type="curve" smooth="yes"/>
      <point x="238" y="-197"/>
      <point x="182" y="-212"/>
      <point x="107" y="-188" type="curve" smooth="yes"/>
      <point x="100" y="-186"/>
      <point x="94" y="-195"/>
      <point x="94" y="-213" type="curve" smooth="yes"/>
      <point x="94" y="-217"/>
      <point x="99" y="-221"/>
      <point x="110" y="-223" type="curve" smooth="yes"/>
      <point x="220" y="-247"/>
      <point x="295" y="-214"/>
      <point x="295" y="-145" type="curve" smooth="yes"/>
      <point x="295" y="-97"/>
      <point x="252" y="-62"/>
      <point x="190" y="-64" type="curve"/>
      <point x="216" y="3" type="line"/>
    </contour>
  </outline>
</glyph>
<glyph name="commaaccentcomb.case" format="2">
  <anchor x="194" y="0" name="_bottom"/>
  <anchor x="194" y="-216" name="bottom"/>
  <outline>
    <contour>
      <point x="146" y="-212" type="curve"/>
      <point x="165" y="-216" type="line"/>
      <point x="226" y="-144"/>
      <point x="250" y="-72"/>
      <point x="239" y="0" type="curve"/>
      <point x="162" y="0" type="line"/>
      <point x="193" y="-71"/>
      <point x="187" y="-141"/>
    </contour>
  </outline>
</glyph>
<glyph name="dieresiscomb.case" format="2">
  <anchor x="212" y="435" name="_top"/>
  <anchor x="289" y="703" name="top"/>
  <outline>
    <contour>
      <point x="146" y="511" type="curve" smooth="yes"/>
      <point x="171" y="511"/>
      <point x="195" y="536"/>
      <point x="199" y="567" type="curve" smooth="yes"/>
      <point x="203" y="598"/>
      <point x="187" y="623"/>
      <point x="162" y="623" type="curve" smooth="yes"/>
      <point x="136" y="623"/>
      <point x="112" y="598"/>
      <point x="108" y="567" type="curve" smooth="yes"/>
      <point x="104" y="536"/>
      <point x="120" y="511"/>
    </contour>
    <contour>
      <point x="302" y="511" type="curve" smooth="yes"/>
      <point x="328" y="511"/>
      <point x="352" y="536"/>
      <point x="356" y="567" type="curve" smooth="yes"/>
      <point x="360" y="598"/>
      <point x="344" y="623"/>
      <point x="318" y="623" type="curve" smooth="yes"/>
      <point x="293" y="623"/>
      <point x="269" y="598"/>
      <point x="265" y="567" type="curve" smooth="yes"/>
      <point x="261" y="536"/>
      <point x="277" y="511"/>
    </contour>
  </outline>
</glyph>
<glyph name="dotbelowcomb.sc" format="2">
  <anchor x="179" y="0" name="_bottom"/>
  <anchor x="180" y="-174" name="bottom"/>
  <outline>
    <contour>
      <point x="179" y="-167" type="curve" smooth="yes"/>
      <point x="203" y="-167"/>
      <point x="223" y="-148"/>
      <point x="223" y="-125" type="curve" smooth="yes"/>
      <point x="223" y="-101"/>
      <point x="203" y="-81"/>
      <point x="179" y="-81" type="curve" smooth="yes"/>
      <point x="156" y="-81"/>
      <point x="137" y="-101"/>
      <point x="137" y="-125" type="curve" smooth="yes"/>
      <point x="137" y="-148"/>
      <point x="156" y="-167"/>
    </contour>
  </outline>
</glyph>
<glyph name="hookabovecomb.case" format="2">
  <anchor x="133" y="616" name="_top"/>
  <anchor x="133" y="860" name="top"/>
  <outline>
    <contour>
      <point x="125" y="663" type="line"/>
      <point x="195" y="684"/>
      <point x="225" y="736"/>
      <point x="202" y="800" type="curve" smooth="yes"/>
      <point x="182" y="855"/>
      <point x="125" y="874"/>
      <point x="57" y="850" type="curve"/>
      <point x="71" y="815" type="line"/>
      <point x="108" y="827"/>
      <point x="139" y="815"/>
      <point x="151" y="780" type="curve" smooth="yes"/>
      <point x="164" y="746"/>
      <point x="150" y="714"/>
      <point x="116" y="697" type="curve"/>
    </contour>
  </outline>
</glyph>
<glyph name="hungarumlautcomb.sc" format="2">
  <anchor x="185" y="384" name="_top"/>
  <anchor x="185" y="630" name="top"/>
  <outline>
    <contour>
      <point x="57" y="442" type="line"/>
      <point x="74" y="434" type="line"/>
      <point x="185" y="596" type="line"/>
      <point x="189" y="604"/>
      <point x="171" y="614"/>
      <point x="153" y="624" type="curve" smooth="yes"/>
      <point x="133" y="632"/>
      <point x="116" y="633"/>
      <point x="113" y="624" type="curve"/>
    </contour>
    <contour>
      <point x="185" y="442" type="line"/>
      <point x="202" y="434" type="line"/>
      <point x="313" y="596" type="line"/>
      <point x="317" y="604"/>
      <point x="299" y="614"/>
      <point x="281" y="624" type="curve" smooth="yes"/>
      <point x="261" y="632"/>
      <point x="244" y="633"/>
      <point x="241" y="624" type="curve"/>
    </contour>
  </outline>
</glyph>
<glyph name="tildecomb.case" format="2">
  <anchor x="157" y="616" name="_top"/>
  <anchor x="157" y="830" name="top"/>
  <outline>
    <contour>
      <point x="325" y="818" type="line"/>
      <point x="285" y="751"/>
      <point x="278" y="702"/>
      <point x="194" y="702" type="curve"/>
      <point x="122" y="702" type="line"/>
      <point x="71" y="702"/>
      <point x="67" y="692"/>
      <point x="9" y="637" type="curve"/>
      <point x="-11" y="649" type="line"/>
      <point x="29" y="716"/>
      <point x="36" y="765"/>
      <point x="120" y="765" type="curve"/>
      <point x="192" y="765" type="line"/>
      <point x="243" y="765"/>
      <point x="247" y="775"/>
      <point x="305" y="830" type="curve"/>
    </contour>
  </outline>
</glyph>
